<?xml version="1.0" standalone="no"?>
<!DOCTYPE svg PUBLIC "-//W3C//DTD SVG 20010904//EN"
 "http://www.w3.org/TR/2001/REC-SVG-20010904/DTD/svg10.dtd">
<svg version="1.0" xmlns="http://www.w3.org/2000/svg"
 width="904.000000pt" height="982.000000pt" viewBox="0 0 904.000000 982.000000"
 preserveAspectRatio="xMidYMid meet">

<g transform="translate(0.000000,982.000000) scale(0.100000,-0.100000)"
fill="#000000" stroke="none">
<path d="M3857 9796 c-125 -52 -226 -145 -282 -260 -52 -106 -65 -171 -65
-323 l0 -133 -357 0 c-423 -1 -466 -3 -532 -25 -63 -21 -144 -92 -176 -156
-28 -54 -44 -153 -42 -249 l2 -65 1895 0 1895 0 3 64 c9 195 -53 320 -193 391
l-66 33 -423 5 -423 5 -6 146 c-6 155 -17 210 -62 306 -40 85 -158 201 -250
246 l-70 34 -395 2 -395 3 -58 -24z m736 -318 c41 -16 84 -71 92 -117 10 -62
-26 -129 -85 -159 -44 -22 -50 -23 -317 -20 -257 3 -273 4 -300 24 -71 53 -91
129 -54 203 31 59 63 75 161 81 137 8 472 0 503 -12z"/>
<path d="M6376 9793 c29 -120 137 -218 267 -242 167 -30 342 81 381 242 l6 27
-225 -1 c-211 -1 -225 -3 -225 -20 0 -22 37 -49 67 -49 16 0 23 -6 23 -20 0
-17 -7 -20 -41 -20 -49 0 -99 43 -99 84 0 26 -1 26 -80 26 l-80 0 6 -27z m464
3 c6 -8 10 -25 8 -38 -6 -42 -78 -32 -78 11 0 37 46 55 70 27z"/>
<path d="M7216 9793 c39 -161 214 -272 382 -242 129 24 237 122 266 242 l6 27
-330 0 -330 0 6 -27z m359 -33 c0 -33 -2 -35 -35 -35 -29 0 -36 4 -38 23 -6
40 5 54 40 50 30 -3 33 -6 33 -38z"/>
<path d="M8896 9793 c16 -64 81 -160 125 -184 18 -9 19 -4 19 101 l0 110 -75
0 -75 0 6 -27z"/>
<path d="M1303 8820 c-62 -14 -132 -71 -166 -135 l-22 -40 0 -4190 0 -4190 27
-47 c16 -25 45 -61 65 -78 79 -65 -158 -60 3113 -58 l2975 3 54 30 c64 35 105
83 126 145 13 40 15 516 13 4215 l-3 4170 -27 47 c-16 25 -45 60 -65 77 -73
60 -79 61 -607 61 l-481 0 2 -247 2 -248 360 -3 361 -2 0 -3880 0 -3880 -2735
0 -2735 0 0 3880 0 3880 128 0 c70 1 234 2 365 3 l238 2 2 248 2 247 -480 -1
c-264 -1 -495 -4 -512 -9z"/>
<path d="M2400 8448 c0 -13 7 -54 15 -92 23 -108 82 -183 183 -233 l57 -28
1645 0 1645 0 47 22 c63 29 134 97 163 154 20 39 45 141 45 187 0 9 -387 12
-1900 12 l-1900 0 0 -22z"/>
<path d="M2255 7457 c-33 -16 -60 -38 -80 -67 -27 -38 -30 -51 -30 -114 1
-110 32 -153 186 -257 94 -63 109 -80 109 -127 0 -39 -28 -62 -77 -62 -44 0
-73 23 -73 58 0 21 -4 22 -84 22 l-83 0 8 -49 c10 -64 31 -103 75 -139 59 -49
136 -62 235 -41 114 25 191 152 160 267 -20 77 -56 117 -172 194 -116 77 -141
108 -121 152 22 50 108 40 118 -14 l7 -30 78 0 79 0 0 29 c0 37 -18 89 -43
125 -50 72 -195 98 -292 53z"/>
<path d="M2690 7163 c0 -303 1 -309 24 -358 42 -90 105 -127 217 -127 82 0
141 24 185 74 56 64 59 84 59 413 l0 300 -80 0 -80 0 -5 -298 -5 -299 -24 -19
c-41 -33 -93 -24 -116 22 -12 23 -15 82 -15 314 l0 285 -80 0 -80 0 0 -307z"/>
<path d="M3307 7463 c-4 -3 -7 -179 -7 -390 l0 -383 75 0 76 0 -3 225 c-2 124
-1 225 2 225 3 0 18 -39 33 -88 16 -48 38 -111 50 -140 l21 -53 80 3 80 3 48
140 c26 77 49 145 52 150 3 6 2 -97 -1 -227 l-6 -238 76 0 77 0 0 390 0 391
-77 -3 -77 -3 -49 -120 c-27 -66 -66 -163 -87 -215 -30 -76 -40 -91 -46 -75
-4 11 -30 74 -56 140 -27 66 -63 155 -80 198 l-31 77 -72 0 c-39 0 -75 -3 -78
-7z"/>
<path d="M4100 7080 l0 -390 76 0 77 0 -5 235 c-3 129 -4 235 -3 235 2 0 24
-62 49 -137 26 -76 50 -144 55 -151 5 -9 30 -12 86 -10 l79 3 46 135 c26 74
49 142 52 150 3 8 3 -92 0 -222 l-5 -238 76 0 77 0 0 390 0 390 -77 0 -78 0
-59 -143 c-32 -78 -70 -172 -84 -209 -14 -38 -28 -68 -31 -68 -4 0 -14 23 -24
50 -10 28 -48 123 -84 210 l-67 160 -78 0 -78 0 0 -390z"/>
<path d="M5016 7458 c-3 -7 -16 -62 -30 -123 -14 -60 -37 -157 -50 -215 -69
-294 -96 -411 -96 -420 0 -6 34 -10 78 -10 l78 0 13 65 13 66 81 -3 81 -3 14
-62 13 -63 80 0 c72 0 80 2 75 18 -2 9 -21 85 -40 167 -20 83 -60 249 -89 370
l-53 220 -82 3 c-61 2 -83 -1 -86 -10z m129 -455 l8 -33 -50 0 -50 0 18 98
c10 53 21 120 25 147 7 49 7 48 25 -65 9 -63 21 -130 24 -147z"/>
<path d="M5440 7080 l0 -390 80 0 80 0 0 131 0 130 28 -3 c29 -3 42 -25 111
-181 l34 -77 83 0 c46 0 84 2 84 5 0 3 -30 68 -67 146 l-66 140 30 32 c52 55
65 91 67 191 1 77 -3 98 -23 139 -46 95 -129 127 -323 127 l-118 0 0 -390z
m267 220 c36 -22 50 -66 39 -126 -11 -53 -37 -74 -96 -74 l-50 0 0 110 0 110
38 0 c20 0 51 -9 69 -20z"/>
<path d="M5960 7460 c0 -7 38 -130 85 -274 l85 -262 0 -117 0 -117 80 0 80 0
0 109 0 109 90 270 c50 148 90 274 90 281 0 7 -26 11 -78 11 l-79 0 -32 -112
c-18 -62 -41 -140 -50 -173 l-18 -60 -12 45 c-7 25 -24 83 -38 130 -14 47 -31
103 -37 125 l-12 39 -77 4 c-53 2 -77 -1 -77 -8z"/>
<path d="M2136 6009 c-32 -25 -35 -75 -7 -110 15 -19 30 -24 84 -27 37 -2 78
-1 92 2 64 16 86 86 40 131 -21 22 -33 25 -103 25 -65 0 -84 -4 -106 -21z"/>
<path d="M2545 6005 c-40 -39 -30 -96 22 -123 16 -9 514 -12 1938 -12 2044 0
1961 -2 1979 45 12 33 5 66 -19 90 l-24 25 -1936 0 -1936 0 -24 -25z"/>
<path d="M2155 5628 c-48 -26 -61 -92 -26 -127 41 -41 174 -40 218 0 39 38 28
100 -24 127 -27 15 -141 15 -168 0z"/>
<path d="M2551 5614 c-38 -32 -41 -72 -7 -111 l24 -28 1937 0 1937 0 24 28
c37 43 26 104 -23 126 -17 8 -558 11 -1943 11 l-1918 0 -31 -26z"/>
<path d="M2141 5214 c-41 -34 -43 -83 -5 -113 22 -17 41 -21 110 -21 77 0 84
2 103 26 21 27 26 59 15 89 -11 28 -60 45 -128 45 -55 0 -69 -4 -95 -26z"/>
<path d="M2565 5228 c-49 -28 -59 -78 -24 -122 l20 -26 1944 0 1944 0 20 26
c12 15 21 35 21 45 0 30 -21 66 -44 77 -33 15 -3855 15 -3881 0z"/>
<path d="M2136 4819 c-37 -29 -37 -89 2 -119 24 -19 37 -21 110 -18 74 3 86 6
103 27 26 32 24 77 -6 106 -21 22 -33 25 -103 25 -65 0 -84 -4 -106 -21z"/>
<path d="M2545 4815 c-30 -29 -32 -74 -6 -106 l19 -24 1947 0 1947 0 19 24
c26 32 24 77 -6 106 l-24 25 -1936 0 -1936 0 -24 -25z"/>
<path d="M2136 4419 c-32 -25 -35 -75 -7 -110 15 -19 30 -24 84 -27 37 -2 78
-1 92 2 64 16 86 86 40 131 -21 22 -33 25 -103 25 -65 0 -84 -4 -106 -21z"/>
<path d="M2545 4415 c-40 -40 -30 -96 22 -123 16 -9 500 -12 1938 -12 2076 0
1964 -3 1979 52 10 41 7 58 -19 83 l-24 25 -1936 0 -1936 0 -24 -25z"/>
<path d="M2155 4039 c-32 -18 -45 -40 -45 -74 0 -31 30 -74 53 -76 7 -1 32 -3
57 -5 96 -10 150 20 150 81 0 54 -38 79 -123 83 -41 1 -80 -2 -92 -9z"/>
<path d="M2574 4040 c-28 -11 -54 -48 -54 -77 0 -12 11 -35 24 -50 l24 -28
1937 0 1937 0 24 28 c30 36 30 68 0 104 l-24 28 -1924 2 c-1057 1 -1933 -2
-1944 -7z"/>
<path d="M2153 3640 c-49 -20 -59 -96 -17 -129 22 -17 41 -21 106 -21 70 0 82
3 103 25 40 39 32 96 -16 120 -31 16 -140 19 -176 5z"/>
<path d="M2565 3638 c-51 -27 -60 -84 -20 -123 l24 -25 1936 0 1936 0 24 25
c39 38 27 102 -22 124 -34 16 -3849 15 -3878 -1z"/>
<path d="M2135 3225 c-16 -15 -25 -36 -25 -55 0 -19 9 -40 25 -55 22 -22 32
-25 105 -25 73 0 83 3 105 25 16 15 25 36 25 55 0 19 -9 40 -25 55 -22 22 -32
25 -105 25 -73 0 -83 -3 -105 -25z"/>
<path d="M2545 3225 c-16 -15 -25 -36 -25 -55 0 -19 9 -40 25 -55 l24 -25
1936 0 1936 0 24 25 c16 15 25 36 25 55 0 19 -9 40 -25 55 l-24 25 -1936 0
-1936 0 -24 -25z"/>
<path d="M2132 2827 c-27 -29 -28 -77 -3 -108 18 -22 27 -24 111 -24 84 0 93
2 111 24 25 30 24 72 -2 105 -19 25 -25 26 -108 26 -79 0 -90 -2 -109 -23z"/>
<path d="M2541 2824 c-26 -33 -26 -71 -1 -104 l19 -25 1923 -3 c1058 -1 1933
0 1946 3 59 14 80 80 41 129 l-20 26 -1944 0 -1944 0 -20 -26z"/>
<path d="M2130 2430 c-36 -36 -25 -102 21 -125 34 -18 141 -20 172 -3 52 27
63 89 24 126 -20 19 -35 22 -110 22 -74 0 -90 -3 -107 -20z"/>
<path d="M2542 2427 c-31 -33 -28 -72 7 -108 l29 -29 1921 0 c1386 0 1927 3
1944 11 47 21 60 80 26 123 l-20 26 -1943 0 -1943 0 -21 -23z"/>
<path d="M2155 2048 c-53 -28 -62 -93 -19 -127 22 -17 41 -21 106 -21 70 0 82
3 103 25 43 42 29 105 -26 124 -41 14 -138 14 -164 -1z"/>
<path d="M2565 2048 c-51 -29 -60 -84 -20 -123 l24 -25 1936 0 1936 0 24 25
c43 42 28 103 -29 125 -41 15 -3844 13 -3871 -2z"/>
<path d="M2136 1639 c-20 -16 -26 -29 -26 -59 0 -60 32 -80 132 -80 70 0 82 3
103 25 16 15 25 36 25 55 0 19 -9 40 -25 55 -21 22 -33 25 -103 25 -65 0 -84
-4 -106 -21z"/>
<path d="M2545 1635 c-16 -15 -25 -36 -25 -55 0 -19 9 -40 25 -55 l24 -25
1936 0 1936 0 24 25 c16 15 25 36 25 55 0 19 -9 40 -25 55 l-24 25 -1936 0
-1936 0 -24 -25z"/>
<path d="M2131 1234 c-29 -37 -26 -70 8 -105 27 -27 35 -29 106 -29 67 0 79 3
100 25 31 30 32 73 4 109 -19 25 -25 26 -109 26 -84 0 -90 -1 -109 -26z"/>
<path d="M2541 1234 c-26 -33 -27 -75 -2 -105 l19 -24 1941 -3 1942 -2 24 24
c31 31 32 74 4 110 l-20 26 -1944 0 -1944 0 -20 -26z"/>
</g>
</svg>
